<svg width="512" height="512" viewBox="0 0 512 512" fill="none" xmlns="http://www.w3.org/2000/svg">
  <defs>
    <linearGradient id="g" x1="0" y1="0" x2="512" y2="512" gradientUnits="userSpaceOnUse">
      <stop stop-color="#6366f1"/>
      <stop offset="1" stop-color="#8b5cf6"/>
    </linearGradient>
  </defs>
  <rect width="512" height="512" rx="112" fill="#0a0a0f"/>
  <rect x="40" y="40" width="432" height="432" rx="96" fill="url(#g)"/>
  <!-- Sparkles mark -->
  <path d="M256 120c14 66 42 94 108 108-66 14-94 42-108 108-14-66-42-94-108-108 66-14 94-42 108-108z" fill="#fff"/>
  <path d="M372 300c7 33 21 47 54 54-33 7-47 21-54 54-7-33-21-47-54-54 33-7 47-21 54-54z" fill="#fff" opacity="0.9"/>
</svg>
